<?xml version="1.0" encoding="UTF-8"?>
<!DOCTYPE svg PUBLIC "-//W3C//DTD SVG 1.1//EN" "http://www.w3.org/Graphics/SVG/1.1/DTD/svg11.dtd">
<!-- Creator: CorelDRAW 2020 (64-Bit) -->
<svg xmlns="http://www.w3.org/2000/svg" xml:space="preserve" width="160px" height="160px" version="1.1" style="shape-rendering:geometricPrecision; text-rendering:geometricPrecision; image-rendering:optimizeQuality; fill-rule:evenodd; clip-rule:evenodd"
viewBox="0 0 160 160"
 xmlns:xlink="http://www.w3.org/1999/xlink"
 xmlns:xodm="http://www.corel.com/coreldraw/odm/2003">
 <defs>
  <style type="text/css">
   <![CDATA[
    .fil0 {fill:white;fill-rule:nonzero}
   ]]>
  </style>
 </defs>
 <g id="Capa_x0020_1">
  <metadata id="CorelCorpID_0Corel-Layer"/>
  <path class="fil0" d="M149.27 38.67c-4.57,3.05 -9.14,3.05 -13.72,4.57 1.53,0 4.58,-4.57 6.1,-6.09 1.53,-3.05 3.05,-4.58 4.57,-7.63 0,-1.52 0,-1.52 0,-1.52 0,0 0,0 -1.52,0 -4.57,3.05 -9.15,4.57 -15.24,6.1 0,0 -1.53,0 -1.53,0 0,0 0,-1.53 -1.52,-1.53 -1.52,-1.52 -4.57,-3.05 -7.62,-4.57 -3.05,-1.52 -7.62,-1.52 -10.67,-1.52 -4.57,0 -9.15,1.52 -12.19,3.04 -3.05,1.53 -6.1,4.58 -9.15,7.63 -1.52,3.04 -4.57,6.09 -4.57,10.66 -1.52,3.05 -1.52,7.63 -1.52,10.67 1.52,1.53 0,1.53 0,1.53 -21.34,-3.05 -39.63,-12.2 -54.87,-28.96 0,0 0,0 -1.53,0 -6.09,10.67 -3.05,25.91 4.58,33.53 1.52,1.52 3.04,1.52 3.04,3.05 0,0 -4.57,0 -9.14,-3.05 -1.53,0 -1.53,0 -1.53,0 0,1.52 0,3.05 0,3.05 1.53,10.67 7.63,19.81 16.77,22.86 1.52,0 3.05,1.53 4.57,1.53 -3.05,0 -4.57,0 -10.67,0 -1.52,0 -1.52,0 -1.52,1.52 4.57,12.19 15.24,15.24 22.86,18.29 0,0 1.53,0 3.05,0 0,0 0,0 -1.52,0 -1.53,3.05 -10.67,6.1 -13.72,7.62 -7.62,3.05 -15.24,4.57 -22.86,3.05 -1.53,0 -1.53,0 -1.53,0 -1.52,0 0,0 0,1.52 1.53,0 3.05,1.52 4.57,1.52 4.58,3.05 9.15,4.58 15.25,6.1 27.43,7.62 57.91,3.05 77.73,-18.29 16.76,-15.24 21.33,-36.58 21.33,-59.44 0,0 1.53,-1.52 1.53,-1.52 4.57,-3.05 7.62,-7.62 10.67,-10.67 1.52,-1.53 1.52,-1.53 1.52,-3.05 0,0 0,0 0,0 0,0 0,0 0,0z"/>
 </g>
</svg>
